<svg width="36" height="36" viewBox="0 0 36 36" fill="none" xmlns="http://www.w3.org/2000/svg">
<g clip-path="url(#clip0_1_337)">
<path d="M2.24999 2.44951C-0.579006 5.38801 -6.28084e-06 8.50951 -6.28084e-06 17.9925C-6.28084e-06 25.8675 -1.37401 33.762 5.81699 35.6205C8.06249 36.198 27.9585 36.198 30.201 35.6175C33.195 34.845 35.631 32.4165 35.964 28.182C36.0105 27.591 36.0105 8.40451 35.9625 7.80151C35.6085 3.29101 32.832 0.691509 29.1735 0.165009C28.335 0.0435086 28.167 0.00750855 23.865 8.55699e-06C8.60549 0.00750855 5.26049 -0.671992 2.24999 2.44951Z" fill="url(#paint0_linear_1_337)"/>
<path d="M17.997 4.70851C12.5505 4.70851 7.3785 4.22401 5.403 9.29401C4.587 11.388 4.7055 14.1075 4.7055 18.0015C4.7055 21.4185 4.596 24.63 5.403 26.7075C7.374 31.7805 12.588 31.2945 17.994 31.2945C23.2095 31.2945 28.587 31.8375 30.5865 26.7075C31.404 24.5925 31.284 21.9135 31.284 18.0015C31.284 12.8085 31.5705 9.45601 29.052 6.93901C26.502 4.38901 23.0535 4.70851 17.991 4.70851H17.997ZM16.806 7.10401C28.167 7.08601 29.613 5.82301 28.815 23.3685C28.5315 29.574 23.8065 28.893 17.9985 28.893C7.40849 28.893 7.104 28.59 7.104 17.9955C7.104 7.27801 7.944 7.11001 16.806 7.10101V7.10401ZM25.092 9.31051C24.2115 9.31051 23.4975 10.0245 23.4975 10.905C23.4975 11.7855 24.2115 12.4995 25.092 12.4995C25.9725 12.4995 26.6865 11.7855 26.6865 10.905C26.6865 10.0245 25.9725 9.31051 25.092 9.31051ZM17.997 11.175C14.2275 11.175 11.172 14.232 11.172 18.0015C11.172 21.771 14.2275 24.8265 17.997 24.8265C21.7665 24.8265 24.8205 21.771 24.8205 18.0015C24.8205 14.232 21.7665 11.175 17.997 11.175ZM17.997 13.5705C23.8545 13.5705 23.862 22.4325 17.997 22.4325C12.141 22.4325 12.132 13.5705 17.997 13.5705Z" fill="white"/>
</g>
<defs>
<linearGradient id="paint0_linear_1_337" x1="2.31902" y1="33.7006" x2="35.7772" y2="4.74297" gradientUnits="userSpaceOnUse">
<stop stop-color="#FFDD55"/>
<stop offset="0.5" stop-color="#FF543E"/>
<stop offset="1" stop-color="#C837AB"/>
</linearGradient>
<clipPath id="clip0_1_337">
<rect width="36" height="36" fill="white"/>
</clipPath>
</defs>
</svg>
