<svg width="36" height="36" viewBox="0 0 36 36" fill="none" xmlns="http://www.w3.org/2000/svg">
<g clip-path="url(#clip0_1_340)">
<path d="M36 6.83775C34.6613 7.425 33.2347 7.81425 31.7475 8.00325C33.2775 7.08975 34.4453 5.65425 34.9943 3.924C33.5678 4.7745 31.9927 5.37525 30.3142 5.7105C28.9597 4.26825 27.0292 3.375 24.9232 3.375C20.8372 3.375 17.5477 6.6915 17.5477 10.7573C17.5477 11.3423 17.5972 11.9047 17.7188 12.4402C11.583 12.141 6.15375 9.20025 2.5065 4.7205C1.86975 5.82525 1.49625 7.08975 1.49625 8.451C1.49625 11.007 2.8125 13.2727 4.7745 14.5845C3.58875 14.562 2.4255 14.2178 1.44 13.6755C1.44 13.698 1.44 13.7273 1.44 13.7565C1.44 17.343 3.99825 20.322 7.353 21.0082C6.75225 21.1725 6.0975 21.2512 5.418 21.2512C4.9455 21.2512 4.4685 21.2243 4.02075 21.1252C4.977 24.048 7.6905 26.1967 10.917 26.2665C8.406 28.2307 5.21775 29.4142 1.76625 29.4142C1.161 29.4142 0.5805 29.3872 0 29.313C3.26925 31.4212 7.14375 32.625 11.322 32.625C24.903 32.625 32.328 21.375 32.328 11.6235C32.328 11.2972 32.3167 10.9823 32.301 10.6695C33.7658 9.63 34.9965 8.33175 36 6.83775Z" fill="#03A9F4"/>
</g>
<defs>
<clipPath id="clip0_1_340">
<rect width="36" height="36" fill="white"/>
</clipPath>
</defs>
</svg>
